{
    "asset" : {
        "generator" : "Khronos glTF Blender I/O v1.2.75",
        "version" : "2.0"
    },
    "extensionsUsed" : [
        "KHR_materials_clearcoat"
    ],
    "scene" : 0,
    "scenes" : [
        {
            "name" : "Scene",
            "nodes" : [
                0,
                1,
                2
            ]
        }
    ],
    "nodes" : [
        {
            "name" : "Light",
            "rotation" : [
                0.16907575726509094,
                0.7558803558349609,
                -0.27217137813568115,
                0.570947527885437
            ],
            "scale" : [
                0.009999990463256836,
                0.009999990463256836,
                0.009999990463256836
            ],
            "translation" : [
                -0.007067441940307617,
                0.07689262926578522,
                1.94365656375885
            ]
        },
        {
            "name" : "Camera",
            "rotation" : [
                0.483536034822464,
                0.33687159419059753,
                -0.20870360732078552,
                0.7804827094078064
            ],
            "scale" : [
                0.009999990463256836,
                0.009999990463256836,
                0.009999990463256836
            ],
            "translation" : [
                0.025758981704711914,
                0.06743694841861725,
                2.0229692459106445
            ]
        },
        {
            "mesh" : 0,
            "name" : "Ring beam",
            "scale" : [
                0.00999998115003109,
                0.00999998115003109,
                0.00999998115003109
            ],
            "translation" : [
                -0.06352557986974716,
                0.0023378946352750063,
                -0.011189699172973633
            ]
        }
    ],
    "materials" : [
        {
            "doubleSided" : true,
            "emissiveFactor" : [
                0,
                0,
                0
            ],
            "extensions" : {
                "KHR_materials_clearcoat" : {
                    "clearcoatFactor" : 0.11009173840284348,
                    "clearcoatRoughnessFactor" : 0
                }
            },
            "name" : "Material.001",
            "pbrMetallicRoughness" : {
                "metallicFactor" : 0.7247706651687622,
                "roughnessFactor" : 0.17889907956123352
            }
        }
    ],
    "meshes" : [
        {
            "name" : "Ring beam.001",
            "primitives" : [
                {
                    "attributes" : {
                        "POSITION" : 0,
                        "NORMAL" : 1
                    },
                    "indices" : 2,
                    "material" : 0
                }
            ]
        }
    ],
    "accessors" : [
        {
            "bufferView" : 0,
            "componentType" : 5126,
            "count" : 20743,
            "max" : [
                437.5077209472656,
                19.9819278717041,
                257.496826171875
            ],
            "min" : [
                -434.4923095703125,
                -20.0180721282959,
                -257.5032043457031
            ],
            "type" : "VEC3"
        },
        {
            "bufferView" : 1,
            "componentType" : 5126,
            "count" : 20743,
            "type" : "VEC3"
        },
        {
            "bufferView" : 2,
            "componentType" : 5123,
            "count" : 38484,
            "type" : "SCALAR"
        }
    ],
    "bufferViews" : [
        {
            "buffer" : 0,
            "byteLength" : 248916,
            "byteOffset" : 0
        },
        {
            "buffer" : 0,
            "byteLength" : 248916,
            "byteOffset" : 248916
        },
        {
            "buffer" : 0,
            "byteLength" : 76968,
            "byteOffset" : 497832
        }
    ],
    "buffers" : [
        {
            "byteLength" : 574800,
            "uri" : "data:application/octet-stream;base64,"
        }
    ]
}
